# xmcd CD database file generated by Grip 2.98.6
# 
# Track frame offsets:
#       150
#       23662
#       48205
#       78472
#       101032
#       124325
#       138420
#       154270
#       177717
#       201660
# 
# Disc length: 2983 secs
# 
# Revision: 2
# Processed by: cddbd v1.4PL0 Copyright (c) Steve Scherf et al.
# Submitted via: Grip 2.98.6
# 
DISCID=8f0ba50a
DTITLE=Robben Ford - Tiger Walk
DYEAR=1997
DGENRE=Blues
TTITLE0=In The Beginning
TTITLE1=Ghosts
TTITLE2=Freedom
TTITLE3=Red Lady w/ Cello
TTITLE4=Oasis
TTITLE5=Just Like It Is
TTITLE6=I Can't Stand the Rain
TTITLE7=The Champ
TTITLE8=Tiger Walk
TTITLE9=Comin' Up
EXTD=
EXTT0=
EXTT1=
EXTT2=
EXTT3=
EXTT4=
EXTT5=
EXTT6=
EXTT7=
EXTT8=\n\n\n\n\n
EXTT9=
PLAYORDER=
